<?xml version="1.0" encoding="UTF-8" standalone="no"?>
<svg
   width="1152.1306"
   height="311.26123"
   viewBox="0 0 1152.1306 311.26123"
   version="1.1"
   xml:space="preserve"
   style="clip-rule:evenodd;fill-rule:evenodd;stroke-linejoin:round;stroke-miterlimit:2"
   id="svg276"
   xmlns="http://www.w3.org/2000/svg"
   xmlns:svg="http://www.w3.org/2000/svg"><defs
   id="defs280" />
    <g
   transform="matrix(1.49015,0,0,1.49015,-260.48848,-195.36366)"
   id="g274">
        <g
   transform="matrix(-0.303945,3.06832,3.06832,0.303945,280.098,164.203)"
   id="g4">
            <path
   d="M 3.87,-5.63 C 6.645,-5.862 9.011,-3.601 9.081,-1.186 9.178,2.207 6.46,4.117 3.87,3.875 0.937,3.599 -0.743,1.072 -0.29,-1.64 0.099,-3.982 1.84,-5.463 3.87,-5.63"
   style="fill:#ffffff"
   id="path2" />
        </g>
        <g
   transform="matrix(-3.07943,-0.155122,-0.155122,3.07943,275.048,192.464)"
   id="g8">
            <path
   d="m 0.45,-9.606 c -2.731,-0.321 -5.174,1.479 -5.307,4.422 -0.117,2.598 1.921,5.221 5.307,4.96 C 2.858,-0.41 5.002,-2.883 4.637,-5.644 4.371,-7.663 2.808,-9.331 0.45,-9.606"
   style="fill:#221a16"
   id="path6" />
        </g>
        <g
   transform="matrix(-3.07943,-0.155122,-0.155122,3.07943,275.048,192.464)"
   id="g12"
   style="fill:#003366;fill-opacity:1">
            <path
   d="m 0.45,-9.606 c -2.731,-0.321 -5.174,1.479 -5.307,4.422 -0.117,2.598 1.921,5.221 5.307,4.96 C 2.858,-0.41 5.002,-2.883 4.637,-5.644 4.371,-7.663 2.808,-9.331 0.45,-9.606"
   style="fill:#003366;fill-opacity:1"
   id="path10" />
        </g>
        <g
   transform="matrix(3.08333,0,0,3.08333,239.884,201.126)"
   id="g16"
   style="fill:#4caf50;fill-opacity:1">
            <path
   d="m 0,0.224 h 0.021 c 0.182,-3.291 -1.798,-5.468 -4.693,-5.468 -2.889,0 -4.871,2.184 -4.687,5.468 h 0.019 c 0.526,5.2 8.8,5.244 9.34,0"
   style="fill:#4caf50;fill-opacity:1"
   id="path14" />
        </g>
        <g
   transform="matrix(3.08333,0,0,3.08333,265.695,169.796)"
   id="g20"
   style="fill:#4caf50;fill-opacity:1">
            <path
   d="m 0,53.766 c -8.339,-4.862 -15.468,-10.927 -19.232,-20.337 -0.224,-0.675 -0.408,-1.038 -0.533,-1.593 -1.262,-5.652 1.257,-9.86 5.708,-10.78 3.469,-0.717 7.134,0.693 10.006,2.186 -3.52,-4.84 -9.026,-7.698 -16.964,-8.123 -0.055,-1.933 0.283,-3.467 0.624,-5.001 h -0.004 C -19.337,6.135 -17.526,2.9 -15.385,0 c -4.541,2.348 -7.969,5.813 -10.549,10.118 h -0.005 c -1.646,2.658 -3.092,6.821 -3.443,11.252 -0.349,4.47 0.246,8.756 2.033,12.108 h 0.071 C -22.196,44.179 -12.598,50.799 0,53.766"
   style="fill:#4caf50;fill-opacity:1"
   id="path18" />
        </g>
        <g
   transform="matrix(3.08333,0,0,3.08333,340.611,202.495)"
   id="g24"
   style="fill:#003366;fill-opacity:1">
            <path
   d="M 0,22.873 H 0.033 C 2.938,17.108 4.174,6.572 1.441,-0.489 H 1.42 c -4.256,-12.027 -14.328,-18.239 -28.906,-19.955 7.634,2.942 14.514,6.638 16.495,15.226 -3.652,0.873 -6.461,2.592 -8.847,4.731 h -0.065 c -3.703,3.354 -6.418,7.702 -8.287,12.891 3.315,-3.532 6.222,-8.082 12.664,-8.594 10.37,-0.829 10.318,10.802 7.663,18.833 h -0.032 c -3.083,9.048 -9.209,15.498 -15.931,20.674 C -13.07,39.297 -4.767,32.843 0,22.873"
   style="fill:#003366;fill-opacity:1"
   id="path22" />
        </g>
        <g
   transform="matrix(3.08333,0,0,3.08333,501.525,148.342)"
   id="g28"
   style="fill:#1c1c1c;fill-opacity:1">
            <path
   d="m 0,-1.778 -0.282,0.616 c -0.081,0.172 -0.273,0.233 -0.418,0.142 -0.483,-0.304 -0.882,-0.697 -1.137,-1.041 0.137,0.646 0.2,1.323 0.2,1.858 0,2.223 -1.046,3.526 -3.074,3.526 -1.755,0 -2.756,-1.122 -2.756,-2.98 0,-1 0.346,-2.142 1.01,-3.202 -0.282,0.111 -0.873,0.223 -1.409,0.293 -0.173,0.02 -0.328,-0.121 -0.346,-0.314 l -0.073,-0.686 c -0.018,-0.192 0.109,-0.354 0.282,-0.363 0.846,-0.041 1.674,-0.223 2.065,-0.435 0.154,-0.081 0.318,-0.182 0.455,-0.283 0.19,-0.142 0.436,-0.121 0.609,0.051 l 0.218,0.221 c 0.164,0.172 0.173,0.455 0.027,0.637 -1.092,1.354 -1.628,2.818 -1.628,3.99 0,1.112 0.564,1.717 1.582,1.717 1.183,0 1.874,-0.818 1.874,-2.636 0,-0.92 -0.191,-2.162 -0.609,-3.677 -0.064,-0.232 0.055,-0.485 0.272,-0.555 l 0.392,-0.132 c 0.218,-0.07 0.445,0.061 0.527,0.293 0.401,1.151 1.155,1.949 2.082,2.485 0.156,0.091 0.219,0.303 0.137,0.475"
   style="fill:#1c1c1c;fill-opacity:1;fill-rule:nonzero"
   id="path26" />
        </g>
        <g
   transform="matrix(3.08333,0,0,3.08333,526.574,131.863)"
   id="g32"
   style="fill:#1c1c1c;fill-opacity:1">
            <path
   d="m 0,8.506 c -0.801,0.101 -1.564,0.131 -2.392,0.131 -2.51,0 -3.774,-0.737 -3.774,-2.333 0,-1.091 0.764,-1.949 1.955,-2.677 -0.436,-0.899 -0.527,-1.92 -0.536,-3.394 0,-0.203 0.145,-0.364 0.327,-0.364 h 0.646 c 0.181,0 0.336,0.161 0.336,0.364 0.009,1.273 0.055,2.152 0.328,2.808 0.672,-0.323 1.427,-0.606 2.218,-0.899 0.173,-0.061 0.346,0.041 0.41,0.222 l 0.227,0.657 c 0.064,0.181 -0.027,0.383 -0.19,0.434 -2.328,0.728 -4.43,1.647 -4.43,2.788 0,0.677 0.628,1.061 2.492,1.061 0.728,0 1.537,-0.061 2.265,-0.182 0.173,-0.03 0.327,0.112 0.346,0.303 L 0.282,8.122 C 0.3,8.314 0.173,8.485 0,8.506"
   style="fill:#1c1c1c;fill-opacity:1;fill-rule:nonzero"
   id="path30" />
        </g>
        <g
   transform="matrix(3.08333,0,0,3.08333,540.124,152.173)"
   id="g36"
   style="fill:#1c1c1c;fill-opacity:1">
            <path
   d="M 0,1.717 -0.509,2.182 C -0.646,2.313 -0.854,2.282 -0.964,2.121 -1.31,1.606 -1.837,0.919 -2.301,0.394 -2.41,0.273 -2.4,0.061 -2.282,-0.051 l 0.454,-0.424 c 0.128,-0.121 0.327,-0.121 0.446,0.01 0.49,0.515 1.028,1.142 1.428,1.666 C 0.164,1.354 0.137,1.585 0,1.717"
   style="fill:#1c1c1c;fill-opacity:1;fill-rule:nonzero"
   id="path34" />
        </g>
        <g
   transform="matrix(3.08333,0,0,3.08333,566.974,133.082)"
   id="g40"
   style="fill:#1c1c1c;fill-opacity:1">
            <path
   d="M 0,7.768 -0.563,8.303 C -0.718,8.455 -0.955,8.445 -1.091,8.273 -2.128,7.04 -3.701,5.667 -5.229,4.536 -5.401,4.405 -5.483,4.233 -5.483,4.021 c 0,-0.202 0.127,-0.465 0.354,-0.657 1.082,-0.889 2.783,-2.617 3.765,-3.868 0.128,-0.163 0.337,-0.183 0.482,-0.051 l 0.536,0.474 c 0.146,0.132 0.156,0.364 0.028,0.516 -0.91,1.07 -2.356,2.575 -3.301,3.354 -0.055,0.049 -0.082,0.11 -0.082,0.161 0,0.05 0.027,0.101 0.063,0.131 1.419,1.031 2.729,2.162 3.648,3.131 C 0.155,7.364 0.146,7.626 0,7.768"
   style="fill:#1c1c1c;fill-opacity:1;fill-rule:nonzero"
   id="path38" />
        </g>
        <g
   transform="matrix(3.08333,0,0,3.08333,577.835,155.817)"
   id="g44"
   style="fill:#1c1c1c;fill-opacity:1">
            <path
   d="m 0,-7.01 0.154,-0.636 c 0.045,-0.182 0.2,-0.293 0.364,-0.262 1.191,0.201 2.719,0.565 3.674,0.888 0.155,0.051 0.245,0.233 0.2,0.414 L 4.237,-5.969 C 4.192,-5.798 4.028,-5.697 3.874,-5.757 2.991,-6.08 1.409,-6.475 0.218,-6.646 0.063,-6.666 -0.037,-6.838 0,-7.01 m 5.538,5.223 c 0,1.707 -1.173,2.716 -3.983,2.716 H 1.236 C 1.063,0.929 0.909,0.789 0.873,0.596 L 0.745,-0.05 c -0.036,-0.161 0.082,-0.323 0.236,-0.314 0.255,0.011 0.528,0.031 0.71,0.031 1.865,0 2.574,-0.575 2.574,-1.424 0,-0.626 -0.373,-1.061 -1.274,-1.061 -0.782,0 -1.618,0.445 -2.501,1.303 -0.154,0.151 -0.382,0.192 -0.572,0.102 l -0.355,-0.183 c -0.191,-0.091 -0.318,-0.303 -0.318,-0.535 0.018,-1.838 0.199,-2.828 0.728,-3.798 0.09,-0.172 0.281,-0.242 0.445,-0.182 l 0.573,0.212 c 0.146,0.051 0.209,0.243 0.127,0.384 -0.472,0.828 -0.591,1.616 -0.591,2.526 0.827,-0.607 1.837,-0.97 2.71,-0.97 1.419,0 2.301,0.858 2.301,2.172"
   style="fill:#1c1c1c;fill-opacity:1;fill-rule:nonzero"
   id="path42" />
        </g>
        <g
   transform="matrix(3.08333,0,0,3.08333,623.636,141.246)"
   id="g48"
   style="fill:#1c1c1c;fill-opacity:1">
            <path
   d="m 0,2.585 c -0.9,2.394 -2.064,3.061 -3.52,3.061 -1.946,0 -2.809,-1.223 -2.809,-3.637 0,-0.889 0.045,-2.697 0.072,-4.687 0,-0.212 0.164,-0.383 0.355,-0.383 h 0.682 c 0.182,0 0.327,0.181 0.319,0.383 -0.128,1.98 -0.164,3.778 -0.164,4.657 0,1.676 0.463,2.273 1.583,2.273 1.008,0 1.718,-0.546 2.3,-2.304 0.064,-0.181 0.245,-0.262 0.41,-0.181 L -0.173,2.08 C -0.009,2.171 0.073,2.393 0,2.585"
   style="fill:#1c1c1c;fill-opacity:1;fill-rule:nonzero"
   id="path46" />
        </g>
        <g
   transform="matrix(3.08333,0,0,3.08333,636.011,152.176)"
   id="g52"
   style="fill:#1c1c1c;fill-opacity:1">
            <path
   d="M 0,1.717 -0.51,2.182 C -0.646,2.313 -0.855,2.282 -0.965,2.121 -1.31,1.606 -1.838,0.919 -2.302,0.394 -2.41,0.273 -2.401,0.061 -2.283,-0.051 l 0.455,-0.424 c 0.127,-0.121 0.327,-0.121 0.445,0.01 0.491,0.515 1.028,1.142 1.428,1.666 C 0.163,1.354 0.136,1.585 0,1.717"
   style="fill:#1c1c1c;fill-opacity:1;fill-rule:nonzero"
   id="path50" />
        </g>
        <g
   transform="matrix(3.08333,0,0,3.08333,652.943,144.912)"
   id="g56"
   style="fill:#1c1c1c;fill-opacity:1">
            <path
   d="m 0,0.476 c -1.01,0.131 -1.292,0.575 -1.292,1.212 0,0.344 0.101,0.575 0.291,0.575 0.228,0 0.409,-0.201 0.673,-0.858 C -0.219,1.142 -0.109,0.83 0,0.476 M 5.447,0.516 5.229,1.183 C 5.165,1.365 4.983,1.465 4.819,1.395 L 4.155,1.142 C 3.828,2.586 3.191,3.607 1.964,4.355 1.81,4.455 1.601,4.415 1.491,4.253 L 1.1,3.708 C 1,3.567 1.036,3.365 1.182,3.284 2.264,2.708 2.773,1.89 3.01,0.788 2.4,0.627 1.8,0.506 1.245,0.455 1.091,0.951 0.937,1.415 0.791,1.809 0.281,3.142 -0.228,3.678 -1.01,3.678 c -0.882,0 -1.383,-0.879 -1.383,-1.92 0,-1.333 0.792,-2.495 2.775,-2.575 0.173,-0.637 0.327,-1.283 0.454,-1.859 l -2.164,0.202 c -0.164,0.011 -0.3,-0.121 -0.318,-0.303 l -0.055,-0.656 c -0.019,-0.172 0.109,-0.334 0.272,-0.334 0.901,-0.01 1.965,-0.091 2.674,-0.192 0.173,-0.02 0.346,0.02 0.491,0.122 l 0.31,0.202 c 0.19,0.131 0.272,0.383 0.2,0.616 -0.2,0.646 -0.419,1.454 -0.645,2.252 0.5,0.06 1.036,0.151 1.582,0.273 0.027,-0.384 0.027,-0.808 0.036,-1.253 0,-0.192 0.145,-0.333 0.318,-0.333 h 0.628 c 0.173,0 0.309,0.161 0.3,0.354 -0.019,0.545 -0.055,1.06 -0.1,1.535 0.3,0.081 0.591,0.172 0.882,0.272 0.163,0.051 0.255,0.253 0.2,0.435"
   style="fill:#1c1c1c;fill-opacity:1;fill-rule:nonzero"
   id="path54" />
        </g>
        <g
   transform="matrix(3.08333,0,0,3.08333,678.943,155.814)"
   id="g60"
   style="fill:#1c1c1c;fill-opacity:1">
            <path
   d="m 0,-7.01 0.154,-0.636 c 0.045,-0.182 0.2,-0.293 0.364,-0.262 1.191,0.201 2.719,0.565 3.674,0.888 0.155,0.051 0.245,0.233 0.2,0.414 L 4.237,-5.969 C 4.192,-5.798 4.028,-5.697 3.874,-5.757 2.991,-6.08 1.409,-6.475 0.218,-6.646 0.063,-6.666 -0.037,-6.838 0,-7.01 m 5.538,5.223 c 0,1.707 -1.173,2.716 -3.983,2.716 H 1.236 C 1.063,0.929 0.909,0.789 0.873,0.596 L 0.745,-0.05 c -0.036,-0.161 0.082,-0.323 0.236,-0.314 0.255,0.011 0.528,0.031 0.71,0.031 1.865,0 2.574,-0.575 2.574,-1.424 0,-0.626 -0.373,-1.061 -1.274,-1.061 -0.782,0 -1.618,0.445 -2.501,1.303 -0.154,0.151 -0.382,0.192 -0.572,0.102 l -0.355,-0.183 c -0.191,-0.091 -0.318,-0.303 -0.318,-0.535 0.018,-1.838 0.199,-2.828 0.728,-3.798 0.09,-0.172 0.281,-0.242 0.445,-0.182 l 0.573,0.212 c 0.146,0.051 0.209,0.243 0.127,0.384 -0.472,0.828 -0.591,1.616 -0.591,2.526 0.827,-0.607 1.837,-0.97 2.71,-0.97 1.419,0 2.301,0.858 2.301,2.172"
   style="fill:#1c1c1c;fill-opacity:1;fill-rule:nonzero"
   id="path58" />
        </g>
        <g
   transform="matrix(3.08333,0,0,3.08333,724.937,140.272)"
   id="g64"
   style="fill:#1c1c1c;fill-opacity:1">
            <path
   d="m 0,3.728 -0.683,0.07 C -0.864,3.819 -1.037,3.658 -1.037,3.445 -1.082,1.496 -1.428,0.324 -2.392,-0.878 -2.501,-1.02 -2.474,-1.232 -2.338,-1.333 l 0.537,-0.383 c 0.155,-0.112 0.364,-0.081 0.482,0.07 1.137,1.444 1.537,2.939 1.646,4.96 C 0.336,3.526 0.19,3.707 0,3.728 M -3.347,3.344 c -0.354,1.516 -0.909,2.212 -1.619,2.212 -1.073,0 -2.319,-1.535 -2.319,-4.909 0,-0.596 0.018,-1.242 0.064,-1.94 0.018,-0.202 0.173,-0.353 0.355,-0.333 l 0.664,0.061 c 0.181,0.021 0.308,0.202 0.291,0.404 -0.065,0.636 -0.11,1.233 -0.11,1.778 0,2.121 0.509,3.364 1,3.364 0.237,0 0.464,-0.444 0.62,-1.162 0.036,-0.161 0.19,-0.252 0.327,-0.182 L -3.538,2.9 c 0.155,0.07 0.236,0.263 0.191,0.444"
   style="fill:#1c1c1c;fill-opacity:1;fill-rule:nonzero"
   id="path62" />
        </g>
        <g
   transform="matrix(3.08333,0,0,3.08333,741.712,153.887)"
   id="g68"
   style="fill:#1c1c1c;fill-opacity:1">
            <path
   d="m 0,-5.213 c -1.318,0.394 -2.064,1.667 -2.064,3.091 0,0.93 0.291,1.576 0.664,1.576 0.537,0 1.309,-1.596 1.4,-4.667 m 4.565,2.354 c 0,1.848 -0.709,3.525 -3.119,4.252 C 1.255,1.454 1.064,1.352 0.974,1.161 L 0.673,0.494 C 0.601,0.322 0.683,0.121 0.846,0.08 c 1.919,-0.454 2.419,-1.575 2.419,-2.909 0,-1.374 -0.6,-2.344 -2.01,-2.485 -0.136,3.757 -1.173,6.303 -2.683,6.303 -1.128,0 -1.837,-1.505 -1.837,-3.07 0,-2.344 1.701,-4.586 4.129,-4.586 2.719,0 3.701,1.808 3.701,3.808"
   style="fill:#1c1c1c;fill-opacity:1;fill-rule:nonzero"
   id="path66" />
        </g>
        <g
   transform="matrix(3.08333,0,0,3.08333,774.948,148.717)"
   id="g72"
   style="fill:#1c1c1c;fill-opacity:1">
            <path
   d="m 0,-2.425 c 0.655,-0.061 1.482,-0.081 2.174,-0.091 0.309,0 0.609,0 0.864,0.01 0.154,0.01 0.264,0.142 0.264,0.313 v 0.606 c 0,0.162 -0.118,0.293 -0.264,0.283 -0.291,-0.02 -0.628,-0.03 -0.974,-0.03 -0.636,0 -1.381,0.051 -2.001,0.131 -0.145,0.02 -0.281,-0.111 -0.291,-0.273 L -0.264,-2.081 C -0.272,-2.253 -0.154,-2.404 0,-2.425 m 3.438,4.394 v 0.657 c 0,0.181 -0.127,0.333 -0.292,0.343 -0.39,0.03 -0.782,0.05 -1.145,0.05 -1.619,0 -2.765,-0.393 -2.765,-1.393 0,-0.323 0.091,-0.688 0.264,-1.152 0.063,-0.162 0.209,-0.253 0.364,-0.222 l 0.518,0.111 c 0.137,0.03 0.21,0.191 0.155,0.333 -0.091,0.223 -0.128,0.394 -0.128,0.566 0,0.414 0.637,0.525 1.583,0.525 0.355,0 0.745,-0.03 1.154,-0.091 0.156,-0.02 0.292,0.102 0.292,0.273 M 1.101,-3.143 H -1.228 C -1.601,-0.91 -2.2,1.333 -2.883,2.898 -2.965,3.08 -3.146,3.151 -3.311,3.06 L -3.893,2.747 C -4.047,2.656 -4.11,2.433 -4.028,2.262 c 0.673,-1.404 1.209,-3.415 1.537,-5.405 h -1.147 c -0.154,0 -0.291,-0.14 -0.291,-0.312 v -0.637 c 0,-0.172 0.137,-0.313 0.291,-0.313 h 1.328 l 0.073,-0.818 c 0.018,-0.202 0.173,-0.353 0.355,-0.344 l 0.646,0.031 c 0.173,0.009 0.308,0.192 0.291,0.383 l -0.091,0.748 h 2.137 c 0.154,0 0.291,0.141 0.291,0.313 v 0.637 c 0,0.172 -0.137,0.312 -0.291,0.312"
   style="fill:#1c1c1c;fill-opacity:1;fill-rule:nonzero"
   id="path70" />
        </g>
        <g
   transform="matrix(3.08333,0,0,3.08333,803.897,149.709)"
   id="g76"
   style="fill:#1c1c1c;fill-opacity:1">
            <path
   d="m 0,-2.979 c -0.419,0.061 -0.801,0.191 -1.137,0.374 0.118,0.717 0.3,1.394 0.528,2 0.245,-0.566 0.472,-1.344 0.609,-2.374 m -1.401,3.525 c -0.3,-0.686 -0.545,-1.474 -0.728,-2.323 -0.399,0.526 -0.627,1.212 -0.627,2 0,0.444 0.182,0.717 0.437,0.717 0.227,0 0.563,-0.08 0.918,-0.394 M 3.883,-0.868 C 3.883,0.718 3.255,2.153 1.182,2.758 1.009,2.809 0.827,2.708 0.745,2.537 L 0.481,1.93 C 0.409,1.779 0.481,1.597 0.636,1.556 2.273,1.123 2.646,0.203 2.646,-0.817 2.646,-1.898 2.091,-2.726 1.209,-2.958 0.981,-1.302 0.545,-0.13 0.045,0.677 L 0.163,0.839 C 0.272,0.991 0.264,1.213 0.136,1.344 L -0.31,1.819 C -0.428,1.951 -0.619,1.92 -0.719,1.779 L -0.792,1.677 c -0.582,0.495 -1.173,0.667 -1.646,0.667 -0.881,0 -1.427,-0.707 -1.427,-1.939 0,-1.515 0.536,-2.768 1.5,-3.596 -0.081,-0.606 -0.127,-1.223 -0.155,-1.859 -0.008,-0.182 0.11,-0.324 0.273,-0.333 l 0.592,-0.021 c 0.163,-0.01 0.3,0.132 0.3,0.314 0.008,0.414 0.027,0.818 0.063,1.232 0.428,-0.182 0.892,-0.303 1.41,-0.363 0.028,-0.384 0.036,-0.788 0.045,-1.223 0,-0.191 0.137,-0.344 0.31,-0.333 l 0.618,0.02 c 0.173,0.01 0.3,0.162 0.3,0.353 -0.009,0.415 -0.028,0.809 -0.054,1.183 1.664,0.252 2.546,1.686 2.546,3.353"
   style="fill:#1c1c1c;fill-opacity:1;fill-rule:nonzero"
   id="path74" />
        </g>
        <g
   transform="matrix(3.08333,0,0,3.08333,830.831,153.137)"
   id="g80"
   style="fill:#1c1c1c;fill-opacity:1">
            <path
   d="m 0,-5.212 c -0.009,-0.182 0.109,-0.334 0.272,-0.344 0.856,-0.07 1.874,-0.1 2.811,-0.1 0.336,0 0.682,0.009 0.982,0.019 0.164,0 0.291,0.142 0.291,0.323 l -0.018,0.658 c 0,0.181 -0.137,0.312 -0.291,0.302 -0.392,-0.02 -0.837,-0.04 -1.282,-0.04 -0.791,0 -1.674,0.05 -2.419,0.121 -0.156,0.02 -0.301,-0.121 -0.31,-0.293 z m 4.556,5.323 v 0.687 c 0,0.192 -0.136,0.364 -0.309,0.374 -0.51,0.04 -1.037,0.07 -1.474,0.07 -1.645,0 -2.901,-0.363 -2.901,-1.444 0,-0.354 0.092,-0.778 0.274,-1.303 0.063,-0.172 0.217,-0.272 0.381,-0.242 l 0.564,0.11 c 0.145,0.031 0.219,0.193 0.164,0.344 -0.1,0.272 -0.146,0.465 -0.146,0.637 0,0.465 0.528,0.626 1.637,0.626 0.464,0 0.991,-0.051 1.501,-0.142 0.163,-0.03 0.309,0.102 0.309,0.283 m -5.32,-6.495 c -0.309,1.263 -0.464,2.728 -0.464,4.162 0,1.232 0.109,2.303 0.4,3.252 0.055,0.193 -0.045,0.395 -0.218,0.455 l -0.645,0.212 c -0.173,0.061 -0.355,-0.06 -0.41,-0.253 -0.273,-1.04 -0.391,-2.272 -0.391,-3.646 0,-1.515 0.173,-3.101 0.446,-4.435 0.036,-0.202 0.218,-0.333 0.4,-0.293 l 0.645,0.132 c 0.173,0.03 0.282,0.222 0.237,0.414"
   style="fill:#1c1c1c;fill-opacity:1;fill-rule:nonzero"
   id="path78" />
        </g>
        <g
   transform="matrix(3.08333,0,0,3.08333,880.742,235.294)"
   id="g84"
   style="fill:#1c1c1c;fill-opacity:1">
            <path
   d="M 0,9.834 V 6.761 h 14.23 l -0.001,3.073 z m 14.23,5.568 H -0.001 L 0.017,12.388 H 14.23 Z M 0,1.139 H 14.23 V 4.207 H 0 Z m 6.634,-3.068 c 2.577,-1.114 5.304,-2.767 7.138,-3.95 0.242,-0.155 0.275,-0.491 0.073,-0.694 l -1.533,-1.944 c -0.148,-0.146 -0.375,-0.174 -0.553,-0.066 -1.754,1.069 -4.397,2.739 -9.736,5.139 -4.459,2.004 -8.044,3.195 -10.925,4.172 -0.184,0.062 -0.304,0.233 -0.304,0.426 l 0.004,2.453 c 10e-4,0.303 0.291,0.52 0.58,0.431 1.483,-0.456 3.465,-1.092 4.54,-1.566 l -0.002,15.543 c 0,0.282 0.23,0.51 0.512,0.51 h 21.239 c 0.282,0 0.511,-0.228 0.511,-0.51 L 18.18,-1.419 c 0,-0.282 -0.23,-0.511 -0.512,-0.511 z"
   style="fill:#1c1c1c;fill-opacity:1;fill-rule:nonzero"
   id="path82" />
        </g>
        <g
   transform="matrix(3.08333,0,0,3.08333,905.602,188.598)"
   id="g88"
   style="fill:#1c1c1c;fill-opacity:1">
            <path
   d="m 0,5.043 c 0,1.706 -0.365,3.142 -3.499,3.142 h -3.147 c -0.282,0 -0.51,-0.23 -0.51,-0.512 V 5.555 c 0,-0.283 0.228,-0.544 0.51,-0.544 h 1.561 c 0.802,0 0.994,-0.126 0.994,-1.317 v -6.325 c 0,-0.282 0.23,-0.511 0.512,-0.511 h 3.068 c 0.282,0 0.511,0.229 0.511,0.511 z"
   style="fill:#1c1c1c;fill-opacity:1;fill-rule:nonzero"
   id="path86" />
        </g>
        <g
   transform="matrix(3.08333,0,0,3.08333,933.273,185.84)"
   id="g92"
   style="fill:#1c1c1c;fill-opacity:1">
            <path
   d="M 0,8.788 C -1.407,6.847 -3.479,3.254 -4.696,0.508 -4.847,0.17 -4.597,-0.208 -4.227,-0.208 h 2.89 c 0.366,0 0.602,0.219 0.692,0.381 1.529,2.754 3.77,5.913 5.311,8.002 0.249,0.337 0.009,0.813 -0.41,0.814 L 0.412,8.995 C 0.249,8.996 0.096,8.921 0,8.788"
   style="fill:#1c1c1c;fill-opacity:1;fill-rule:nonzero"
   id="path90" />
        </g>
        <g
   transform="matrix(3.08333,0,0,3.08333,867.042,185.907)"
   id="g96"
   style="fill:#1c1c1c;fill-opacity:1">
            <path
   d="M 0,8.788 C 1.407,6.847 3.479,3.254 4.696,0.508 4.847,0.17 4.597,-0.208 4.227,-0.208 h -2.89 c -0.366,0 -0.602,0.219 -0.692,0.381 -1.529,2.754 -3.77,5.913 -5.311,8.002 -0.249,0.337 -0.009,0.813 0.41,0.814 l 3.844,0.006 C -0.249,8.996 -0.096,8.92 0,8.788"
   style="fill:#1c1c1c;fill-opacity:1;fill-rule:nonzero"
   id="path94" />
        </g>
        <g
   transform="matrix(3.08333,0,0,3.08333,398.634,292.412)"
   id="g100"
   style="fill:#1c1c1c;fill-opacity:1">
            <path
   d="m 0,-36.851 h 29.88 c 0.225,0 0.409,0.184 0.409,0.409 v 2.593 c 0,0.226 -0.184,0.409 -0.409,0.409 H 3.154 v 15.064 c 0,10.542 -2.862,15.984 -3.868,18.141 C -0.781,-0.091 -0.925,0 -1.084,0 l -3.06,-0.004 c -0.296,0 -0.494,-0.306 -0.372,-0.577 1.496,-3.328 4.107,-9.986 4.107,-17.795 v -18.066 c 0,-0.225 0.182,-0.409 0.409,-0.409"
   style="fill:#1c1c1c;fill-opacity:1;fill-rule:nonzero"
   id="path98" />
        </g>
        <g
   transform="matrix(3.08333,0,0,3.08333,491.932,270.245)"
   id="g104"
   style="fill:#1c1c1c;fill-opacity:1">
            <path
   d="m 0,-2.103 v 2.135 c 0,0.253 -0.205,0.459 -0.459,0.459 h -10.95 v 4.154 c 0,2.045 -0.837,2.969 -3.458,2.969 h -4.682 c -0.254,0 -0.46,-0.205 -0.46,-0.459 l 0.013,-2.224 c 0,-0.254 0.167,-0.441 0.421,-0.441 h 3.571 c 1.057,0 1.049,-1.247 1.049,-2.231 V 0.491 H -25.9 c -0.254,0 -0.46,-0.206 -0.46,-0.459 v -2.135 c 0,-0.253 0.206,-0.459 0.46,-0.459 h 10.946 l 0.006,-1.282 c -10e-4,-0.183 0.059,-0.349 0.226,-0.423 l 5.942,-2.261 h -15.29 c -0.254,0 -0.46,-0.237 -0.46,-0.491 v -2.239 c 0,-0.253 0.206,-0.459 0.46,-0.459 h 21.58 c 0.254,0 0.46,0.206 0.46,0.459 v 2.297 c 0,0.181 -0.108,0.345 -0.273,0.42 l -9.105,3.979 h 10.949 c 0.254,0 0.459,0.206 0.459,0.459"
   style="fill:#1c1c1c;fill-opacity:1;fill-rule:nonzero"
   id="path102" />
        </g>
        <g
   transform="matrix(3.08333,0,0,3.08333,0,-5930.29)"
   id="g108"
   style="fill:#1c1c1c;fill-opacity:1">
            <path
   d="m 153.985,1992.44 h -15.379 v -1.99 h 15.379 z m 0,4.07 h -15.379 v -1.97 h 15.379 z m -18.97,-8.08 v 10.1 c 0,0.28 0.23,0.5 0.512,0.5 h 21.476 c 0.283,0 0.512,-0.22 0.512,-0.5 v -10.1 c 0,-0.28 -0.229,-0.51 -0.512,-0.51 h -21.476 c -0.282,0 -0.512,0.23 -0.512,0.51"
   style="fill:#1c1c1c;fill-opacity:1;fill-rule:nonzero"
   id="path106" />
        </g>
        <g
   transform="matrix(3.08333,0,0,3.08333,552.794,267.164)"
   id="g112"
   style="fill:#1c1c1c;fill-opacity:1">
            <path
   d="m 0,-20.475 v -7.676 c 0,-0.282 0.229,-0.512 0.512,-0.512 h 3.101 c 0.283,0 0.512,0.23 0.512,0.512 v 7.676 h 10.736 c 0.283,0 0.512,0.229 0.512,0.511 v 2.537 c 0,0.282 -0.229,0.511 -0.512,0.511 H 4.125 v 8.219 h 9.714 c 0.282,0 0.511,0.229 0.511,0.511 v 2.534 c 0,0.282 -0.229,0.512 -0.511,0.512 H 4.125 v 9.754 h 13.037 c 0.282,0 0.512,0.228 0.512,0.511 v 2.551 c 0,0.283 -0.23,0.512 -0.512,0.512 h -29.975 c -0.284,0 -0.512,-0.229 -0.512,-0.512 V 5.125 c 0,-0.283 0.228,-0.511 0.512,-0.511 H 0 V -5.14 h -9.967 c -0.282,0 -0.512,-0.23 -0.512,-0.512 v -2.534 c 0,-0.282 0.23,-0.511 0.512,-0.511 H 0 v -8.219 h -8.044 c -0.597,1.46 -0.994,2.738 -1.727,4.321 -0.083,0.18 -0.266,0.296 -0.464,0.296 h -3.451 c -0.393,0 -0.637,-0.425 -0.442,-0.767 1.38,-2.415 3.757,-7.347 5.58,-14.202 0.059,-0.224 0.262,-0.382 0.493,-0.382 h 3.057 c 0.328,0 0.572,0.306 0.498,0.626 -0.582,2.519 -1.145,4.531 -1.878,6.549 z"
   style="fill:#1c1c1c;fill-opacity:1;fill-rule:nonzero"
   id="path110" />
        </g>
        <g
   transform="matrix(3.08333,0,0,3.08333,625.404,232.67)"
   id="g116"
   style="fill:#1c1c1c;fill-opacity:1">
            <path
   d="M 0,16.218 C 4.054,12.869 6.611,9.242 8.268,4.513 h -8.512 c -0.282,0 -0.512,-0.229 -0.512,-0.511 V 1.445 c 0,-0.283 0.23,-0.511 0.512,-0.511 h 9.27 c 0.153,-0.965 0.342,-2.367 0.419,-3.615 0.017,-0.269 0.241,-0.476 0.51,-0.476 h 3.051 c 0.3,0 0.536,0.256 0.51,0.555 -0.104,1.159 -0.292,2.53 -0.489,3.536 h 11.311 c 0.285,0 0.516,0.23 0.512,0.515 -0.055,3.854 -0.304,12.542 -1.515,15.268 -1.15,2.578 -2.856,2.658 -4.363,2.658 h -5.919 c -0.282,0 -0.511,-0.228 -0.512,-0.511 l -0.004,-2.561 c 0,-0.283 0.23,-0.513 0.512,-0.513 h 5.09 c 0.634,0 1.587,-0.62 1.904,-1.889 0.277,-1.23 0.728,-6.016 0.886,-9.388 h -8.695 c -1.489,4.769 -3.877,9.583 -9.56,14.517 -0.203,0.175 -0.511,0.164 -0.7,-0.027 l -2.016,-2.03 C -0.254,16.759 -0.232,16.409 0,16.218"
   style="fill:#1c1c1c;fill-opacity:1;fill-rule:nonzero"
   id="path114" />
        </g>
        <g
   transform="matrix(3.08333,0,0,3.08333,657.014,180.24)"
   id="g120"
   style="fill:#1c1c1c;fill-opacity:1">
            <path
   d="M 0,5.198 C -0.184,3.347 -0.982,1.756 -1.755,0.235 c -0.164,-0.324 0.109,-0.706 0.473,-0.706 h 2.991 c 0.197,0 0.379,0.111 0.463,0.289 C 3.044,1.653 3.706,3.031 4.048,5.074 4.1,5.379 3.874,5.665 3.563,5.666 L 0.508,5.668 C 0.242,5.669 0.026,5.464 0,5.198"
   style="fill:#1c1c1c;fill-opacity:1;fill-rule:nonzero"
   id="path118" />
        </g>
        <g
   transform="matrix(3.08333,0,0,3.08333,632.739,180.24)"
   id="g124"
   style="fill:#1c1c1c;fill-opacity:1">
            <path
   d="M 0,5.198 C -0.184,3.347 -0.983,1.756 -1.755,0.235 -1.92,-0.089 -1.646,-0.471 -1.283,-0.471 h 2.992 c 0.197,0 0.379,0.111 0.463,0.289 C 3.044,1.653 3.706,3.031 4.048,5.074 4.099,5.379 3.873,5.665 3.563,5.666 L 0.508,5.668 C 0.242,5.669 0.026,5.464 0,5.198"
   style="fill:#1c1c1c;fill-opacity:1;fill-rule:nonzero"
   id="path122" />
        </g>
        <g
   transform="matrix(3.08333,0,0,3.08333,693.737,204.008)"
   id="g128"
   style="fill:#1c1c1c;fill-opacity:1">
            <path
   d="M 0,0.004 C 0.927,-1.863 2.23,-5.102 3.03,-7.51 3.141,-7.84 2.895,-8.18 2.546,-8.18 h -3.061 c -0.222,0 -0.42,0.144 -0.486,0.357 -0.673,2.156 -2.216,5.62 -3.48,7.827 h -19.975 c -0.282,0 -0.51,0.229 -0.51,0.512 v 7.157 c 0,0.282 0.23,0.511 0.512,0.511 h 2.62 c 0.282,0 0.511,-0.229 0.511,-0.511 V 3.639 H 2.454 v 4.034 c 0,0.282 0.23,0.511 0.512,0.511 h 2.575 c 0.282,0 0.511,-0.229 0.511,-0.511 V 0.516 C 6.052,0.233 5.825,0.004 5.543,0.004 Z"
   style="fill:#1c1c1c;fill-opacity:1;fill-rule:nonzero"
   id="path126" />
        </g>
        <g
   transform="matrix(3.08333,0,0,3.08333,753.702,292.434)"
   id="g132"
   style="fill:#1c1c1c;fill-opacity:1">
            <path
   d="m 0,-36.857 c -0.645,0 -1.69,-10e-4 -2.237,-10e-4 -0.211,0 -0.391,0.146 -0.437,0.352 -1.011,4.553 -2.867,9.182 -4.447,12.91 -0.16,0.379 -0.317,0.748 -0.472,1.107 -0.023,0.056 -0.035,0.695 -0.035,0.755 v 5.327 c 0,0.477 0.645,0.623 0.855,0.195 1.346,-2.744 2.212,-4.62 2.212,-4.62 v 20.384 c 0,0.248 0.203,0.449 0.451,0.449 h 2.145 c 0.248,0 0.449,-0.201 0.449,-0.449 v -28.065 c 0,-0.042 0.007,-0.084 0.018,-0.124 0.791,-2.761 1.339,-4.901 1.935,-7.675 0.06,-0.279 -0.151,-0.545 -0.437,-0.545"
   style="fill:#1c1c1c;fill-opacity:1;fill-rule:nonzero"
   id="path130" />
        </g>
        <g
   transform="matrix(3.08333,0,0,3.08333,819.379,267.211)"
   id="g136"
   style="fill:#1c1c1c;fill-opacity:1">
            <path
   d="m 0,-20.496 v -7.731 c 0,-0.248 -0.202,-0.451 -0.45,-0.451 h -2.512 c -0.248,0 -0.449,0.203 -0.449,0.451 v 7.731 h -1.592 c -0.248,0 -0.45,0.202 -0.45,0.45 v 2.168 c 0,0.249 0.202,0.45 0.45,0.45 h 1.592 v 4.688 c 0,7.853 -0.566,10.156 -0.984,11.786 -0.379,1.483 -1.153,3.236 -1.463,3.912 -0.079,0.173 -0.325,0.376 -0.189,0.509 l 2.201,1.869 C -3.64,5.537 -3.297,5.498 -3.148,5.251 -0.328,0.563 0,-4.305 0,-12.859 v -4.569 H 1.666 C 1.666,-6.917 1.626,-2.705 1.349,2.253 1.27,3.562 0.883,5.051 -0.108,5.051 h -1.126 c -0.249,0 -0.451,0.202 -0.451,0.45 v 2.231 c 0,0.249 0.203,0.45 0.451,0.45 l 1.76,-0.001 c 2.737,0 3.689,-1.089 3.966,-4.144 0.387,-4.012 0.397,-18.519 0.398,-24.088 0,-0.247 -0.199,-0.445 -0.446,-0.445 z"
   style="fill:#1c1c1c;fill-opacity:1;fill-rule:nonzero"
   id="path134" />
        </g>
        <g
   transform="matrix(3.08333,0,0,3.08333,791.672,243.326)"
   id="g140"
   style="fill:#1c1c1c;fill-opacity:1">
            <path
   d="m 0,-4.935 v 2.557 h -3.089 c -0.005,0 -0.009,-0.004 -0.009,-0.009 v -2.548 z m 0,7.17 H -3.098 V -0.332 H 0 Z m -6.231,-4.61 h -2.973 v -2.56 h 2.973 z m 0,4.61 h -2.973 v -2.567 h 2.973 z m 3.133,-14.984 v -3.881 c 1.161,-0.2 3.885,-0.77 5.318,-1.137 0.198,-0.052 0.335,-0.231 0.335,-0.436 v -2.165 c 0,-0.287 -0.264,-0.502 -0.544,-0.439 -3.235,0.716 -8.512,1.527 -12.84,1.889 -0.234,0.019 -0.41,0.212 -0.41,0.447 v 2.174 c 0,0.26 0.22,0.468 0.48,0.449 1.693,-0.126 3.528,-0.348 4.528,-0.467 v 3.566 h -5.081 c -0.248,0 -0.449,0.202 -0.449,0.45 v 2.284 c 0,0.248 0.201,0.45 0.449,0.45 h 5.081 v 2.073 h -5.099 c -0.249,0 -0.45,0.202 -0.45,0.451 V 4.331 c 0,0.249 0.201,0.45 0.45,0.45 h 5.099 v 2.412 h -5.11 c -0.248,0 -0.45,0.201 -0.45,0.45 v 2.169 c 0,0.249 0.202,0.45 0.45,0.45 h 5.11 v 2.535 h -5.081 c -0.248,0 -0.449,0.203 -0.449,0.451 v 2.237 c 0,0.248 0.2,0.449 0.448,0.45 H 2.106 c 0.249,0 0.449,-0.175 0.449,-0.424 v -2.263 c 0,-0.249 -0.201,-0.451 -0.451,-0.451 h -5.202 v -2.549 h 5.202 c 0.249,0 0.451,-0.203 0.451,-0.451 V 7.643 c 0,-0.249 -0.202,-0.45 -0.451,-0.45 H -3.098 V 4.781 h 5.202 c 0.249,0 0.451,-0.201 0.451,-0.45 V -7.041 c 0,-0.249 -0.202,-0.451 -0.451,-0.451 h -5.202 v -2.073 h 5.202 c 0.249,0 0.451,-0.202 0.451,-0.45 v -2.284 c 0,-0.248 -0.202,-0.45 -0.451,-0.45 z"
   style="fill:#1c1c1c;fill-opacity:1;fill-rule:nonzero"
   id="path138" />
        </g>
        <g
   transform="matrix(3.08333,0,0,3.08333,385.677,333.342)"
   id="g144"
   style="fill:#1c1c1c;fill-opacity:1">
            <path
   d="m 0,-7.483 c 0,-0.068 0.046,-0.113 0.114,-0.113 h 1.009 c 0.102,0 0.158,0.033 0.192,0.113 l 2.121,4.75 h 0.045 l 2.086,-4.75 c 0.034,-0.08 0.091,-0.113 0.193,-0.113 h 0.998 c 0.067,0 0.113,0.045 0.113,0.113 v 7.482 c 0,0.069 -0.046,0.114 -0.113,0.114 H 5.771 C 5.703,0.113 5.658,0.068 5.658,-0.001 V -4.717 H 5.612 L 3.979,-1.089 C 3.935,-0.987 3.866,-0.942 3.765,-0.942 H 3.106 c -0.101,0 -0.169,-0.045 -0.214,-0.147 L 1.259,-4.717 H 1.214 v 4.716 c 0,0.069 -0.046,0.114 -0.113,0.114 H 0.114 C 0.046,0.113 0,0.068 0,-0.001 Z"
   style="fill:#1c1c1c;fill-opacity:1;fill-rule:nonzero"
   id="path142" />
        </g>
        <g
   transform="matrix(3.08333,0,0,3.08333,411.747,309.92)"
   id="g148"
   style="fill:#1c1c1c;fill-opacity:1">
            <path
   d="m 0,7.709 c -0.068,0 -0.113,-0.045 -0.113,-0.113 V 2.357 C -0.113,2.29 -0.068,2.244 0,2.244 h 1.043 c 0.068,0 0.113,0.046 0.113,0.113 v 5.239 c 0,0.068 -0.045,0.113 -0.113,0.113 z M 0,1.213 C -0.068,1.213 -0.113,1.167 -0.113,1.1 V 0.113 C -0.113,0.045 -0.068,0 0,0 H 1.043 C 1.111,0 1.156,0.045 1.156,0.113 V 1.1 c 0,0.067 -0.045,0.113 -0.113,0.113 z"
   style="fill:#1c1c1c;fill-opacity:1;fill-rule:nonzero"
   id="path146" />
        </g>
        <g
   transform="matrix(3.08333,0,0,3.08333,430.341,316.457)"
   id="g152"
   style="fill:#1c1c1c;fill-opacity:1">
            <path
   d="m 0,5.589 c -0.068,0 -0.113,-0.045 -0.113,-0.113 V 2.324 c 0,-0.703 -0.352,-1.19 -1.032,-1.19 -0.658,0 -1.043,0.487 -1.043,1.19 v 3.152 c 0,0.068 -0.045,0.113 -0.114,0.113 h -1.043 c -0.067,0 -0.113,-0.045 -0.113,-0.113 V 0.237 c 0,-0.067 0.046,-0.113 0.113,-0.113 h 1.043 c 0.069,0 0.114,0.046 0.114,0.113 v 0.398 h 0.011 C -1.938,0.294 -1.463,0 -0.737,0 0.431,0 1.156,0.861 1.156,2.029 v 3.447 c 0,0.068 -0.045,0.113 -0.113,0.113 z"
   style="fill:#1c1c1c;fill-opacity:1;fill-rule:nonzero"
   id="path150" />
        </g>
        <g
   transform="matrix(3.08333,0,0,3.08333,438.654,309.92)"
   id="g156"
   style="fill:#1c1c1c;fill-opacity:1">
            <path
   d="m 0,7.709 c -0.068,0 -0.113,-0.045 -0.113,-0.113 V 2.357 C -0.113,2.29 -0.068,2.244 0,2.244 h 1.043 c 0.068,0 0.113,0.046 0.113,0.113 v 5.239 c 0,0.068 -0.045,0.113 -0.113,0.113 z M 0,1.213 C -0.068,1.213 -0.113,1.167 -0.113,1.1 V 0.113 C -0.113,0.045 -0.068,0 0,0 H 1.043 C 1.111,0 1.156,0.045 1.156,0.113 V 1.1 c 0,0.067 -0.045,0.113 -0.113,0.113 z"
   style="fill:#1c1c1c;fill-opacity:1;fill-rule:nonzero"
   id="path154" />
        </g>
        <g
   transform="matrix(3.08333,0,0,3.08333,445.363,319.114)"
   id="g160"
   style="fill:#1c1c1c;fill-opacity:1">
            <path
   d="M 0,3.99 C -0.046,3.945 -0.046,3.877 0,3.832 L 0.646,3.151 c 0.045,-0.045 0.113,-0.045 0.159,0 0.396,0.363 1.031,0.624 1.598,0.624 0.669,0 1.009,-0.272 1.009,-0.646 C 3.412,2.8 3.22,2.595 2.505,2.528 L 1.916,2.471 C 0.805,2.358 0.237,1.791 0.237,0.861 c 0,-1.054 0.76,-1.723 2.12,-1.723 0.851,0 1.565,0.284 2.053,0.669 0.057,0.045 0.057,0.114 0.023,0.159 L 3.877,0.635 C 3.832,0.691 3.774,0.691 3.718,0.657 3.378,0.419 2.834,0.204 2.29,0.204 c -0.545,0 -0.828,0.238 -0.828,0.566 0,0.318 0.193,0.511 0.895,0.578 l 0.59,0.057 c 1.146,0.114 1.69,0.703 1.69,1.599 0,1.089 -0.794,1.848 -2.29,1.848 C 1.224,4.852 0.453,4.41 0,3.99"
   style="fill:#1c1c1c;fill-opacity:1;fill-rule:nonzero"
   id="path158" />
        </g>
        <g
   transform="matrix(3.08333,0,0,3.08333,468.075,311.666)"
   id="g164"
   style="fill:#1c1c1c;fill-opacity:1">
            <path
   d="m 0,7.211 c -1.1,0 -1.519,-0.533 -1.519,-1.599 v -2.88 c 0,-0.044 -0.023,-0.068 -0.068,-0.068 H -1.95 c -0.068,0 -0.113,-0.045 -0.113,-0.113 v -0.76 c 0,-0.067 0.045,-0.113 0.113,-0.113 h 0.363 c 0.045,0 0.068,-0.023 0.068,-0.068 V 0.113 C -1.519,0.046 -1.474,0 -1.405,0 h 1.043 c 0.067,0 0.113,0.046 0.113,0.113 V 1.61 c 0,0.045 0.022,0.068 0.067,0.068 h 0.726 c 0.068,0 0.114,0.046 0.114,0.113 v 0.76 c 0,0.068 -0.046,0.113 -0.114,0.113 h -0.726 c -0.045,0 -0.067,0.024 -0.067,0.068 v 2.834 c 0,0.386 0.158,0.511 0.51,0.511 h 0.283 c 0.068,0 0.114,0.045 0.114,0.113 v 0.908 c 0,0.067 -0.046,0.113 -0.114,0.113 z"
   style="fill:#1c1c1c;fill-opacity:1;fill-rule:nonzero"
   id="path162" />
        </g>
        <g
   transform="matrix(3.08333,0,0,3.08333,474.398,316.457)"
   id="g168"
   style="fill:#1c1c1c;fill-opacity:1">
            <path
   d="m 0,5.589 c -0.068,0 -0.113,-0.045 -0.113,-0.113 V 0.237 C -0.113,0.17 -0.068,0.124 0,0.124 h 1.043 c 0.068,0 0.113,0.046 0.113,0.113 V 0.702 H 1.168 C 1.429,0.283 1.894,0 2.585,0 3.016,0 3.446,0.17 3.729,0.453 3.786,0.51 3.798,0.555 3.753,0.611 L 3.151,1.371 C 3.106,1.428 3.05,1.44 2.993,1.395 2.743,1.235 2.482,1.134 2.188,1.134 c -0.714,0 -1.032,0.51 -1.032,1.383 v 2.959 c 0,0.068 -0.045,0.113 -0.113,0.113 z"
   style="fill:#1c1c1c;fill-opacity:1;fill-rule:nonzero"
   id="path166" />
        </g>
        <g
   transform="matrix(3.08333,0,0,3.08333,489.809,316.839)"
   id="g172"
   style="fill:#1c1c1c;fill-opacity:1">
            <path
   d="m 0,7.506 c -0.068,0 -0.113,-0.046 -0.113,-0.113 V 6.485 C -0.113,6.417 -0.068,6.372 0,6.372 h 0.204 c 0.431,0 0.647,-0.193 0.817,-0.646 L 1.179,5.261 -0.816,0.113 C -0.839,0.046 -0.794,0 -0.726,0 H 0.396 C 0.465,0 0.511,0.046 0.533,0.113 L 1.769,3.685 H 1.791 L 2.971,0.113 C 2.993,0.046 3.038,0 3.106,0 h 1.078 c 0.068,0 0.113,0.046 0.09,0.113 L 2.188,5.805 C 1.712,7.098 1.259,7.506 0.352,7.506 Z"
   style="fill:#1c1c1c;fill-opacity:1;fill-rule:nonzero"
   id="path170" />
        </g>
        <g
   transform="matrix(3.08333,0,0,3.08333,520.537,322.159)"
   id="g176"
   style="fill:#1c1c1c;fill-opacity:1">
            <path
   d="M 0,2.016 C 0.091,1.733 0.113,1.472 0.113,1.007 0.113,0.542 0.091,0.293 0,-0.002 c -0.159,-0.453 -0.511,-0.713 -1.021,-0.713 -0.51,0 -0.873,0.26 -1.032,0.713 -0.09,0.295 -0.113,0.544 -0.113,1.009 0,0.465 0.023,0.726 0.113,1.009 0.159,0.454 0.522,0.715 1.032,0.715 0.51,0 0.862,-0.261 1.021,-0.715 m -3.276,0.341 c -0.125,-0.386 -0.182,-0.749 -0.182,-1.35 0,-0.6 0.057,-0.964 0.182,-1.348 0.305,-0.954 1.144,-1.508 2.255,-1.508 1.1,0 1.939,0.554 2.246,1.508 0.124,0.384 0.18,0.748 0.18,1.348 0,0.601 -0.056,0.964 -0.18,1.35 -0.307,0.952 -1.146,1.508 -2.246,1.508 -1.111,0 -1.95,-0.556 -2.255,-1.508"
   style="fill:#1c1c1c;fill-opacity:1;fill-rule:nonzero"
   id="path174" />
        </g>
        <g
   transform="matrix(3.08333,0,0,3.08333,529.233,309.92)"
   id="g180"
   style="fill:#1c1c1c;fill-opacity:1">
            <path
   d="m 0,7.709 c -0.067,0 -0.113,-0.045 -0.113,-0.113 V 3.299 c 0,-0.045 -0.023,-0.069 -0.068,-0.069 h -0.363 c -0.067,0 -0.113,-0.044 -0.113,-0.113 v -0.76 c 0,-0.067 0.046,-0.113 0.113,-0.113 h 0.363 c 0.045,0 0.068,-0.022 0.068,-0.067 V 1.825 C -0.113,0.555 0.511,0 1.701,0 H 2.2 C 2.268,0 2.313,0.045 2.313,0.113 V 1.02 C 2.313,1.088 2.268,1.134 2.2,1.134 H 1.849 c -0.568,0 -0.692,0.136 -0.692,0.669 v 0.374 c 0,0.045 0.023,0.067 0.068,0.067 H 2.2 c 0.068,0 0.113,0.046 0.113,0.113 v 0.76 C 2.313,3.186 2.268,3.23 2.2,3.23 H 1.225 C 1.18,3.23 1.157,3.254 1.157,3.299 v 4.297 c 0,0.068 -0.046,0.113 -0.113,0.113 z"
   style="fill:#1c1c1c;fill-opacity:1;fill-rule:nonzero"
   id="path178" />
        </g>
        <g
   transform="matrix(3.08333,0,0,3.08333,546.55,333.342)"
   id="g184"
   style="fill:#1c1c1c;fill-opacity:1">
            <path
   d="m 0,-7.483 c 0,-0.068 0.046,-0.113 0.114,-0.113 h 1.111 c 0.068,0 0.113,0.045 0.113,0.113 v 3.038 c 0,0.045 0.023,0.068 0.068,0.068 h 2.937 c 0.045,0 0.068,-0.023 0.068,-0.068 v -3.038 c 0,-0.068 0.045,-0.113 0.113,-0.113 h 1.111 c 0.068,0 0.113,0.045 0.113,0.113 v 7.482 c 0,0.069 -0.045,0.114 -0.113,0.114 H 4.524 c -0.068,0 -0.113,-0.045 -0.113,-0.114 v -3.106 c 0,-0.045 -0.023,-0.068 -0.068,-0.068 H 1.406 c -0.045,0 -0.068,0.023 -0.068,0.068 v 3.106 c 0,0.069 -0.045,0.114 -0.113,0.114 H 0.114 C 0.046,0.113 0,0.068 0,-0.001 Z"
   style="fill:#1c1c1c;fill-opacity:1;fill-rule:nonzero"
   id="path182" />
        </g>
        <g
   transform="matrix(3.08333,0,0,3.08333,578.458,328.591)"
   id="g188"
   style="fill:#1c1c1c;fill-opacity:1">
            <path
   d="m 0,-2.156 c -0.147,-0.442 -0.556,-0.703 -1.065,-0.703 -0.522,0 -0.93,0.261 -1.078,0.703 -0.045,0.137 -0.068,0.272 -0.068,0.465 0,0.046 0.023,0.068 0.068,0.068 H 0 c 0.046,0 0.068,-0.022 0.068,-0.068 0,-0.193 -0.022,-0.328 -0.068,-0.465 m -3.299,2.415 c -0.113,-0.352 -0.193,-0.77 -0.193,-1.338 0,-0.566 0.068,-0.997 0.181,-1.348 0.307,-0.954 1.146,-1.508 2.234,-1.508 1.123,0 1.938,0.578 2.245,1.508 0.125,0.384 0.182,0.758 0.182,1.643 0,0.068 -0.046,0.113 -0.125,0.113 h -3.368 c -0.045,0 -0.068,0.023 -0.068,0.069 0,0.158 0.034,0.295 0.08,0.419 0.181,0.533 0.611,0.828 1.224,0.828 0.612,0 1.01,-0.227 1.281,-0.522 C 0.431,0.067 0.487,0.055 0.544,0.101 L 1.213,0.69 c 0.057,0.046 0.057,0.102 0.012,0.159 -0.465,0.544 -1.237,0.93 -2.246,0.93 -1.156,0 -1.972,-0.568 -2.278,-1.52"
   style="fill:#1c1c1c;fill-opacity:1;fill-rule:nonzero"
   id="path186" />
        </g>
        <g
   transform="matrix(3.08333,0,0,3.08333,595.928,322.507)"
   id="g192"
   style="fill:#1c1c1c;fill-opacity:1">
            <path
   d="M 0,1.79 V 1.371 C 0,1.325 -0.022,1.303 -0.067,1.303 h -0.908 c -0.816,0 -1.178,0.226 -1.178,0.737 0,0.453 0.328,0.68 0.94,0.68 C -0.431,2.72 0,2.414 0,1.79 M 0.137,3.627 C 0.068,3.627 0.023,3.582 0.023,3.514 V 3.117 H 0.012 c -0.261,0.374 -0.772,0.635 -1.542,0.635 -0.998,0 -1.837,-0.522 -1.837,-1.667 0,-1.191 0.839,-1.734 2.188,-1.734 h 1.112 C -0.022,0.351 0,0.328 0,0.282 V 0.021 c 0,-0.623 -0.295,-0.907 -1.213,-0.907 -0.612,0 -0.986,0.171 -1.247,0.375 -0.057,0.045 -0.125,0.033 -0.158,-0.023 l -0.42,-0.748 c -0.034,-0.057 -0.023,-0.114 0.022,-0.148 0.443,-0.317 1.043,-0.532 1.939,-0.532 1.667,0 2.279,0.566 2.279,1.904 v 3.572 c 0,0.068 -0.046,0.113 -0.113,0.113 z"
   style="fill:#1c1c1c;fill-opacity:1;fill-rule:nonzero"
   id="path190" />
        </g>
        <g
   transform="matrix(3.08333,0,0,3.08333,608.647,309.921)"
   id="g196"
   style="fill:#1c1c1c;fill-opacity:1">
            <path
   d="m 0,7.777 c -1.065,0 -1.496,-0.511 -1.496,-1.564 v -6.1 C -1.496,0.045 -1.451,0 -1.383,0 h 1.043 c 0.068,0 0.113,0.045 0.113,0.113 v 6.031 c 0,0.374 0.148,0.499 0.476,0.499 h 0.25 c 0.067,0 0.113,0.045 0.113,0.113 v 0.908 c 0,0.067 -0.046,0.113 -0.113,0.113 z"
   style="fill:#1c1c1c;fill-opacity:1;fill-rule:nonzero"
   id="path194" />
        </g>
        <g
   transform="matrix(3.08333,0,0,3.08333,619.164,311.666)"
   id="g200"
   style="fill:#1c1c1c;fill-opacity:1">
            <path
   d="m 0,7.211 c -1.1,0 -1.519,-0.533 -1.519,-1.599 v -2.88 c 0,-0.044 -0.023,-0.068 -0.068,-0.068 H -1.95 c -0.068,0 -0.113,-0.045 -0.113,-0.113 v -0.76 c 0,-0.067 0.045,-0.113 0.113,-0.113 h 0.363 c 0.045,0 0.068,-0.023 0.068,-0.068 V 0.113 C -1.519,0.046 -1.474,0 -1.405,0 h 1.043 c 0.067,0 0.113,0.046 0.113,0.113 V 1.61 c 0,0.045 0.022,0.068 0.067,0.068 h 0.726 c 0.068,0 0.114,0.046 0.114,0.113 v 0.76 c 0,0.068 -0.046,0.113 -0.114,0.113 h -0.726 c -0.045,0 -0.067,0.024 -0.067,0.068 v 2.834 c 0,0.386 0.158,0.511 0.51,0.511 h 0.283 c 0.068,0 0.114,0.045 0.114,0.113 v 0.908 c 0,0.067 -0.046,0.113 -0.114,0.113 z"
   style="fill:#1c1c1c;fill-opacity:1;fill-rule:nonzero"
   id="path198" />
        </g>
        <g
   transform="matrix(3.08333,0,0,3.08333,635.906,309.92)"
   id="g204"
   style="fill:#1c1c1c;fill-opacity:1">
            <path
   d="m 0,7.709 c -0.068,0 -0.113,-0.045 -0.113,-0.113 V 4.444 c 0,-0.703 -0.352,-1.19 -1.033,-1.19 -0.657,0 -1.042,0.487 -1.042,1.19 v 3.152 c 0,0.068 -0.045,0.113 -0.114,0.113 h -1.043 c -0.068,0 -0.113,-0.045 -0.113,-0.113 V 0.113 C -3.458,0.045 -3.413,0 -3.345,0 h 1.043 c 0.069,0 0.114,0.045 0.114,0.113 v 2.642 h 0.011 c 0.238,-0.341 0.714,-0.635 1.44,-0.635 1.168,0 1.893,0.861 1.893,2.029 v 3.447 c 0,0.068 -0.046,0.113 -0.113,0.113 z"
   style="fill:#1c1c1c;fill-opacity:1;fill-rule:nonzero"
   id="path202" />
        </g>
        <g
   transform="matrix(3.08333,0,0,3.08333,642.678,337.221)"
   id="g208"
   style="fill:#1c1c1c;fill-opacity:1">
            <path
   d="M 0,-2.415 C 0,-2.483 0.046,-2.528 0.114,-2.528 H 1.18 c 0.068,0 0.113,0.045 0.113,0.113 v 1.235 c 0,0.114 -0.012,0.17 -0.079,0.239 L 0.272,0.033 C 0.216,0.09 0.171,0.113 0.114,0.113 0.046,0.113 0,0.067 0,0 Z"
   style="fill:#1c1c1c;fill-opacity:1;fill-rule:nonzero"
   id="path206" />
        </g>
        <g
   transform="matrix(3.08333,0,0,3.08333,655.303,333.342)"
   id="g212"
   style="fill:#1c1c1c;fill-opacity:1">
            <path
   d="m 0,-7.483 c 0,-0.068 0.045,-0.113 0.113,-0.113 h 1.112 c 0.067,0 0.113,0.045 0.113,0.113 v 6.326 c 0,0.045 0.022,0.068 0.068,0.068 h 3.537 c 0.068,0 0.114,0.045 0.114,0.113 v 0.975 c 0,0.069 -0.046,0.114 -0.114,0.114 H 0.113 C 0.045,0.113 0,0.068 0,-0.001 Z"
   style="fill:#1c1c1c;fill-opacity:1;fill-rule:nonzero"
   id="path210" />
        </g>
        <g
   transform="matrix(3.08333,0,0,3.08333,683.05,322.507)"
   id="g216"
   style="fill:#1c1c1c;fill-opacity:1">
            <path
   d="M 0,1.79 V 1.371 C 0,1.325 -0.022,1.303 -0.067,1.303 h -0.908 c -0.816,0 -1.178,0.226 -1.178,0.737 0,0.453 0.328,0.68 0.94,0.68 C -0.431,2.72 0,2.414 0,1.79 M 0.137,3.627 C 0.068,3.627 0.023,3.582 0.023,3.514 V 3.117 H 0.012 c -0.261,0.374 -0.772,0.635 -1.542,0.635 -0.998,0 -1.837,-0.522 -1.837,-1.667 0,-1.191 0.839,-1.734 2.188,-1.734 h 1.112 C -0.022,0.351 0,0.328 0,0.282 V 0.021 c 0,-0.623 -0.295,-0.907 -1.213,-0.907 -0.612,0 -0.986,0.171 -1.247,0.375 -0.057,0.045 -0.125,0.033 -0.158,-0.023 l -0.42,-0.748 c -0.034,-0.057 -0.023,-0.114 0.022,-0.148 0.443,-0.317 1.043,-0.532 1.939,-0.532 1.667,0 2.279,0.566 2.279,1.904 v 3.572 c 0,0.068 -0.046,0.113 -0.113,0.113 z"
   style="fill:#1c1c1c;fill-opacity:1;fill-rule:nonzero"
   id="path214" />
        </g>
        <g
   transform="matrix(3.08333,0,0,3.08333,701.571,315.585)"
   id="g220"
   style="fill:#1c1c1c;fill-opacity:1">
            <path
   d="M 0,4.16 C 0.079,3.911 0.113,3.639 0.113,3.139 0.113,2.64 0.079,2.369 0,2.119 -0.147,1.666 -0.499,1.417 -1.009,1.417 c -0.521,0 -0.873,0.249 -1.02,0.702 -0.079,0.25 -0.114,0.521 -0.114,1.02 0,0.5 0.035,0.772 0.114,1.021 0.147,0.453 0.499,0.703 1.02,0.703 0.51,0 0.862,-0.25 1.009,-0.703 m -2.131,1.19 h -0.012 v 0.409 c 0,0.068 -0.045,0.113 -0.113,0.113 h -1.043 c -0.068,0 -0.113,-0.045 -0.113,-0.113 v -7.483 c 0,-0.068 0.045,-0.113 0.113,-0.113 h 1.043 c 0.068,0 0.113,0.045 0.113,0.113 v 2.653 h 0.012 c 0.261,-0.374 0.714,-0.646 1.451,-0.646 0.93,0 1.61,0.441 1.893,1.314 0.137,0.42 0.193,0.806 0.193,1.542 0,0.738 -0.056,1.123 -0.193,1.542 C 0.93,5.555 0.25,5.997 -0.68,5.997 -1.417,5.997 -1.87,5.724 -2.131,5.35"
   style="fill:#1c1c1c;fill-opacity:1;fill-rule:nonzero"
   id="path218" />
        </g>
        <g
   transform="matrix(3.08333,0,0,3.08333,719.358,322.159)"
   id="g224"
   style="fill:#1c1c1c;fill-opacity:1">
            <path
   d="M 0,2.016 C 0.091,1.733 0.113,1.472 0.113,1.007 0.113,0.542 0.091,0.293 0,-0.002 c -0.159,-0.453 -0.511,-0.713 -1.021,-0.713 -0.51,0 -0.873,0.26 -1.032,0.713 -0.09,0.295 -0.113,0.544 -0.113,1.009 0,0.465 0.023,0.726 0.113,1.009 0.159,0.454 0.522,0.715 1.032,0.715 0.51,0 0.862,-0.261 1.021,-0.715 m -3.276,0.341 c -0.125,-0.386 -0.182,-0.749 -0.182,-1.35 0,-0.6 0.057,-0.964 0.182,-1.348 0.305,-0.954 1.144,-1.508 2.255,-1.508 1.1,0 1.939,0.554 2.246,1.508 0.124,0.384 0.18,0.748 0.18,1.348 0,0.601 -0.056,0.964 -0.18,1.35 -0.307,0.952 -1.146,1.508 -2.246,1.508 -1.111,0 -1.95,-0.556 -2.255,-1.508"
   style="fill:#1c1c1c;fill-opacity:1;fill-rule:nonzero"
   id="path222" />
        </g>
        <g
   transform="matrix(3.08333,0,0,3.08333,737.53,317.224)"
   id="g228"
   style="fill:#1c1c1c;fill-opacity:1">
            <path
   d="m 0,5.34 c -0.068,0 -0.113,-0.045 -0.113,-0.113 V 4.83 h -0.012 c -0.295,0.374 -0.726,0.635 -1.417,0.635 -1.168,0 -1.882,-0.862 -1.882,-2.029 v -3.448 c 0,-0.067 0.045,-0.113 0.113,-0.113 h 1.043 c 0.068,0 0.114,0.046 0.114,0.113 v 3.153 c 0,0.703 0.329,1.19 1.02,1.19 0.646,0 1.021,-0.487 1.021,-1.179 v -3.164 c 0,-0.067 0.045,-0.113 0.113,-0.113 h 1.043 c 0.067,0 0.113,0.046 0.113,0.113 V 5.227 C 1.156,5.295 1.11,5.34 1.043,5.34 Z"
   style="fill:#1c1c1c;fill-opacity:1;fill-rule:nonzero"
   id="path226" />
        </g>
        <g
   transform="matrix(3.08333,0,0,3.08333,745.979,316.457)"
   id="g232"
   style="fill:#1c1c1c;fill-opacity:1">
            <path
   d="m 0,5.589 c -0.067,0 -0.113,-0.045 -0.113,-0.113 V 0.237 C -0.113,0.17 -0.067,0.124 0,0.124 h 1.043 c 0.068,0 0.113,0.046 0.113,0.113 V 0.702 H 1.168 C 1.429,0.283 1.894,0 2.585,0 3.016,0 3.447,0.17 3.73,0.453 3.787,0.51 3.798,0.555 3.753,0.611 L 3.152,1.371 C 3.106,1.428 3.05,1.44 2.993,1.395 2.744,1.235 2.483,1.134 2.188,1.134 c -0.713,0 -1.032,0.51 -1.032,1.383 v 2.959 c 0,0.068 -0.045,0.113 -0.113,0.113 z"
   style="fill:#1c1c1c;fill-opacity:1;fill-rule:nonzero"
   id="path230" />
        </g>
        <g
   transform="matrix(3.08333,0,0,3.08333,774.954,322.507)"
   id="g236"
   style="fill:#1c1c1c;fill-opacity:1">
            <path
   d="M 0,1.79 V 1.371 C 0,1.325 -0.022,1.303 -0.068,1.303 h -0.908 c -0.815,0 -1.178,0.226 -1.178,0.737 0,0.453 0.329,0.68 0.941,0.68 C -0.431,2.72 0,2.414 0,1.79 M 0.136,3.627 C 0.067,3.627 0.022,3.582 0.022,3.514 V 3.117 H 0.011 C -0.25,3.491 -0.76,3.752 -1.53,3.752 c -0.998,0 -1.837,-0.522 -1.837,-1.667 0,-1.191 0.839,-1.734 2.187,-1.734 h 1.112 C -0.022,0.351 0,0.328 0,0.282 V 0.021 c 0,-0.623 -0.295,-0.907 -1.213,-0.907 -0.612,0 -0.986,0.171 -1.247,0.375 -0.057,0.045 -0.125,0.033 -0.159,-0.023 l -0.419,-0.748 c -0.034,-0.057 -0.024,-0.114 0.022,-0.148 0.442,-0.317 1.043,-0.532 1.939,-0.532 1.667,0 2.278,0.566 2.278,1.904 v 3.572 c 0,0.068 -0.045,0.113 -0.113,0.113 z"
   style="fill:#1c1c1c;fill-opacity:1;fill-rule:nonzero"
   id="path234" />
        </g>
        <g
   transform="matrix(3.08333,0,0,3.08333,793.231,316.457)"
   id="g240"
   style="fill:#1c1c1c;fill-opacity:1">
            <path
   d="m 0,5.589 c -0.068,0 -0.113,-0.045 -0.113,-0.113 V 2.324 c 0,-0.703 -0.352,-1.19 -1.033,-1.19 -0.657,0 -1.042,0.487 -1.042,1.19 v 3.152 c 0,0.068 -0.045,0.113 -0.114,0.113 h -1.043 c -0.068,0 -0.113,-0.045 -0.113,-0.113 V 0.237 c 0,-0.067 0.045,-0.113 0.113,-0.113 h 1.043 c 0.069,0 0.114,0.046 0.114,0.113 v 0.398 h 0.011 C -1.939,0.294 -1.463,0 -0.737,0 0.431,0 1.156,0.861 1.156,2.029 v 3.447 c 0,0.068 -0.046,0.113 -0.113,0.113 z"
   style="fill:#1c1c1c;fill-opacity:1;fill-rule:nonzero"
   id="path238" />
        </g>
        <g
   transform="matrix(3.08333,0,0,3.08333,810.84,315.585)"
   id="g244"
   style="fill:#1c1c1c;fill-opacity:1">
            <path
   d="M 0,4.16 C 0.079,3.911 0.113,3.639 0.113,3.139 0.113,2.64 0.079,2.369 0,2.119 -0.147,1.666 -0.499,1.417 -1.021,1.417 c -0.509,0 -0.861,0.249 -1.008,0.702 -0.079,0.25 -0.114,0.521 -0.114,1.02 0,0.5 0.035,0.772 0.114,1.021 0.147,0.453 0.499,0.703 1.008,0.703 0.522,0 0.874,-0.25 1.021,-0.703 M 0.227,5.872 C 0.159,5.872 0.113,5.827 0.113,5.759 V 5.35 h -0.01 c -0.261,0.374 -0.715,0.647 -1.452,0.647 -0.929,0 -1.61,-0.442 -1.893,-1.316 -0.137,-0.419 -0.194,-0.804 -0.194,-1.542 0,-0.736 0.057,-1.122 0.194,-1.542 0.283,-0.873 0.964,-1.314 1.893,-1.314 0.737,0 1.191,0.272 1.452,0.646 h 0.01 v -2.653 c 0,-0.068 0.046,-0.113 0.114,-0.113 H 1.27 c 0.068,0 0.113,0.045 0.113,0.113 v 7.483 c 0,0.068 -0.045,0.113 -0.113,0.113 z"
   style="fill:#1c1c1c;fill-opacity:1;fill-rule:nonzero"
   id="path242" />
        </g>
        <g
   transform="matrix(3.08333,0,0,3.08333,844.227,309.92)"
   id="g248"
   style="fill:#1c1c1c;fill-opacity:1">
            <path
   d="m 0,7.709 c -0.067,0 -0.113,-0.045 -0.136,-0.113 L -1.609,2.324 h -0.024 l -1.484,5.272 c -0.024,0.068 -0.069,0.113 -0.137,0.113 h -0.85 c -0.068,0 -0.114,-0.045 -0.136,-0.113 L -6.133,0.113 C -6.145,0.045 -6.122,0 -6.043,0 h 1.066 c 0.08,0 0.124,0.045 0.136,0.113 l 1.225,5.193 h 0.022 l 1.44,-5.193 C -2.131,0.045 -2.086,0 -2.018,0 h 0.793 c 0.08,0 0.114,0.045 0.137,0.113 L 0.386,5.306 H 0.408 L 1.599,0.113 C 1.61,0.033 1.667,0 1.734,0 H 2.789 C 2.868,0 2.892,0.045 2.88,0.113 L 0.998,7.596 C 0.986,7.664 0.93,7.709 0.861,7.709 Z"
   style="fill:#1c1c1c;fill-opacity:1;fill-rule:nonzero"
   id="path246" />
        </g>
        <g
   transform="matrix(3.08333,0,0,3.08333,864.63,328.591)"
   id="g252"
   style="fill:#1c1c1c;fill-opacity:1">
            <path
   d="m 0,-2.156 c -0.147,-0.442 -0.556,-0.703 -1.065,-0.703 -0.522,0 -0.93,0.261 -1.078,0.703 -0.045,0.137 -0.068,0.272 -0.068,0.465 0,0.046 0.023,0.068 0.068,0.068 H 0 c 0.046,0 0.068,-0.022 0.068,-0.068 0,-0.193 -0.022,-0.328 -0.068,-0.465 m -3.299,2.415 c -0.113,-0.352 -0.193,-0.77 -0.193,-1.338 0,-0.566 0.068,-0.997 0.181,-1.348 0.307,-0.954 1.146,-1.508 2.234,-1.508 1.123,0 1.938,0.578 2.245,1.508 0.125,0.384 0.182,0.758 0.182,1.643 0,0.068 -0.046,0.113 -0.125,0.113 h -3.368 c -0.045,0 -0.068,0.023 -0.068,0.069 0,0.158 0.034,0.295 0.08,0.419 0.181,0.533 0.611,0.828 1.224,0.828 0.612,0 1.01,-0.227 1.281,-0.522 C 0.431,0.067 0.487,0.055 0.544,0.101 L 1.213,0.69 c 0.057,0.046 0.057,0.102 0.012,0.159 -0.465,0.544 -1.237,0.93 -2.246,0.93 -1.156,0 -1.972,-0.568 -2.278,-1.52"
   style="fill:#1c1c1c;fill-opacity:1;fill-rule:nonzero"
   id="path250" />
        </g>
        <g
   transform="matrix(3.08333,0,0,3.08333,877.066,309.921)"
   id="g256"
   style="fill:#1c1c1c;fill-opacity:1">
            <path
   d="m 0,7.777 c -1.065,0 -1.496,-0.511 -1.496,-1.564 v -6.1 C -1.496,0.045 -1.451,0 -1.383,0 h 1.043 c 0.069,0 0.113,0.045 0.113,0.113 v 6.031 c 0,0.374 0.148,0.499 0.477,0.499 h 0.249 c 0.068,0 0.113,0.045 0.113,0.113 v 0.908 c 0,0.067 -0.045,0.113 -0.113,0.113 z"
   style="fill:#1c1c1c;fill-opacity:1;fill-rule:nonzero"
   id="path254" />
        </g>
        <g
   transform="matrix(3.08333,0,0,3.08333,883.286,309.92)"
   id="g260"
   style="fill:#1c1c1c;fill-opacity:1">
            <path
   d="m 0,7.709 c -0.068,0 -0.113,-0.045 -0.113,-0.113 V 3.299 c 0,-0.045 -0.023,-0.069 -0.069,-0.069 h -0.362 c -0.068,0 -0.113,-0.044 -0.113,-0.113 v -0.76 c 0,-0.067 0.045,-0.113 0.113,-0.113 h 0.362 c 0.046,0 0.069,-0.022 0.069,-0.067 V 1.825 C -0.113,0.555 0.51,0 1.7,0 H 2.199 C 2.268,0 2.313,0.045 2.313,0.113 V 1.02 c 0,0.068 -0.045,0.114 -0.114,0.114 H 1.848 c -0.567,0 -0.692,0.136 -0.692,0.669 v 0.374 c 0,0.045 0.023,0.067 0.069,0.067 h 0.974 c 0.069,0 0.114,0.046 0.114,0.113 v 0.76 C 2.313,3.186 2.268,3.23 2.199,3.23 H 1.225 c -0.046,0 -0.069,0.024 -0.069,0.069 v 4.297 c 0,0.068 -0.045,0.113 -0.113,0.113 z"
   style="fill:#1c1c1c;fill-opacity:1;fill-rule:nonzero"
   id="path258" />
        </g>
        <g
   transform="matrix(3.08333,0,0,3.08333,902.822,322.507)"
   id="g264"
   style="fill:#1c1c1c;fill-opacity:1">
            <path
   d="M 0,1.79 V 1.371 C 0,1.325 -0.022,1.303 -0.067,1.303 h -0.908 c -0.816,0 -1.178,0.226 -1.178,0.737 0,0.453 0.328,0.68 0.94,0.68 C -0.431,2.72 0,2.414 0,1.79 M 0.137,3.627 C 0.068,3.627 0.023,3.582 0.023,3.514 V 3.117 H 0.012 c -0.261,0.374 -0.772,0.635 -1.542,0.635 -0.998,0 -1.837,-0.522 -1.837,-1.667 0,-1.191 0.839,-1.734 2.188,-1.734 h 1.112 C -0.022,0.351 0,0.328 0,0.282 V 0.021 c 0,-0.623 -0.295,-0.907 -1.213,-0.907 -0.612,0 -0.986,0.171 -1.247,0.375 -0.057,0.045 -0.125,0.033 -0.158,-0.023 l -0.42,-0.748 c -0.034,-0.057 -0.023,-0.114 0.022,-0.148 0.443,-0.317 1.043,-0.532 1.939,-0.532 1.667,0 2.279,0.566 2.279,1.904 v 3.572 c 0,0.068 -0.046,0.113 -0.113,0.113 z"
   style="fill:#1c1c1c;fill-opacity:1;fill-rule:nonzero"
   id="path262" />
        </g>
        <g
   transform="matrix(3.08333,0,0,3.08333,911.03,316.457)"
   id="g268"
   style="fill:#1c1c1c;fill-opacity:1">
            <path
   d="m 0,5.589 c -0.067,0 -0.113,-0.045 -0.113,-0.113 V 0.237 C -0.113,0.17 -0.067,0.124 0,0.124 h 1.043 c 0.068,0 0.113,0.046 0.113,0.113 V 0.702 H 1.168 C 1.429,0.283 1.894,0 2.585,0 3.016,0 3.447,0.17 3.73,0.453 3.787,0.51 3.798,0.555 3.753,0.611 L 3.152,1.371 C 3.106,1.428 3.05,1.44 2.993,1.395 2.744,1.235 2.483,1.134 2.188,1.134 c -0.713,0 -1.032,0.51 -1.032,1.383 v 2.959 c 0,0.068 -0.045,0.113 -0.113,0.113 z"
   style="fill:#1c1c1c;fill-opacity:1;fill-rule:nonzero"
   id="path266" />
        </g>
        <g
   transform="matrix(3.08333,0,0,3.08333,934.739,328.591)"
   id="g272"
   style="fill:#1c1c1c;fill-opacity:1">
            <path
   d="m 0,-2.156 c -0.147,-0.442 -0.556,-0.703 -1.065,-0.703 -0.522,0 -0.93,0.261 -1.078,0.703 -0.045,0.137 -0.068,0.272 -0.068,0.465 0,0.046 0.023,0.068 0.068,0.068 H 0 c 0.046,0 0.068,-0.022 0.068,-0.068 0,-0.193 -0.022,-0.328 -0.068,-0.465 m -3.299,2.415 c -0.113,-0.352 -0.193,-0.77 -0.193,-1.338 0,-0.566 0.068,-0.997 0.181,-1.348 0.307,-0.954 1.146,-1.508 2.234,-1.508 1.123,0 1.938,0.578 2.245,1.508 0.125,0.384 0.182,0.758 0.182,1.643 0,0.068 -0.046,0.113 -0.125,0.113 h -3.368 c -0.045,0 -0.068,0.023 -0.068,0.069 0,0.158 0.034,0.295 0.08,0.419 0.181,0.533 0.611,0.828 1.224,0.828 0.612,0 1.01,-0.227 1.281,-0.522 C 0.431,0.067 0.487,0.055 0.544,0.101 L 1.213,0.69 c 0.057,0.046 0.057,0.102 0.012,0.159 -0.465,0.544 -1.237,0.93 -2.246,0.93 -1.156,0 -1.972,-0.568 -2.278,-1.52"
   style="fill:#1c1c1c;fill-opacity:1;fill-rule:nonzero"
   id="path270" />
        </g>
    </g>
</svg>
